<?xml version="1.0" encoding="UTF-8"?>
<svg id="Layer_2" data-name="Layer 2" xmlns="http://www.w3.org/2000/svg" viewBox="0 0 57.67 44.96">
  <defs>
    <style>
      .cls-1 {
        stroke-width: 0px;
      }

      .cls-2 {
        fill: none;
        stroke: #231f20;
        stroke-linecap: round;
        stroke-miterlimit: 10;
        stroke-width: 3px;
      }
    </style>
  </defs>
  <g id="Layer_1-2" data-name="Layer 1">
    <g>
      <path class="cls-2" d="m1.5,17.22L27.02,1.93c.96-.57,2.15-.58,3.12-.01l26.04,15.3"/>
      <path class="cls-1" d="m46.72,15.62L30.06,5.77c-.76-.45-1.69-.45-2.45,0L10.95,15.62c-.73.43-1.18,1.22-1.18,2.07v24.86c0,1.33,1.08,2.41,2.41,2.41h8.57c1.33,0,2.41-1.08,2.41-2.41v-5.52c0-1.33,1.08-2.41,2.41-2.41h6.54c1.33,0,2.41,1.08,2.41,2.41v5.52c0,1.33,1.08,2.41,2.41,2.41h8.57c1.33,0,2.41-1.08,2.41-2.41v-24.86c0-.85-.45-1.64-1.18-2.07Zm-2.15,9.79c0,1.32-1.08,2.41-2.41,2.41h-5.34c-1.32,0-2.41-1.08-2.41-2.41v-4.85c0-1.32,1.08-2.41,2.41-2.41h5.34c1.32,0,2.41,1.08,2.41,2.41v4.85Z"/>
    </g>
  </g>
</svg>