<?xml version="1.0" encoding="UTF-8"?>
<svg id="Layer_2" data-name="Layer 2" xmlns="http://www.w3.org/2000/svg" viewBox="0 0 55.07 58.16">
  <defs>
    <style>
      .cls-1 {
        fill: #00a14b;
      }

      .cls-1, .cls-2 {
        stroke-width: 0px;
      }

      .cls-3 {
        fill: none;
        stroke: #00a14b;
        stroke-linecap: round;
        stroke-miterlimit: 10;
        stroke-width: 6px;
      }
    </style>
  </defs>
  <g id="Layer_1-2" data-name="Layer 1">
    <path class="cls-1" d="m35.11,58.16c-3.27,0-5.76-.8-7.48-2.41s-2.58-3.87-2.58-6.8.84-5.34,2.52-6.96c1.68-1.61,4.18-2.42,7.5-2.42,1.12,0,2.12.08,3,.25.63.12,1.25.28,1.84.47.41.13.68.52.68.95v2.44c0,.68-.66,1.15-1.3.95-1.22-.38-2.51-.57-3.85-.57-1.7,0-2.96.39-3.78,1.16-.82.77-1.23,2.02-1.23,3.74s.43,2.89,1.3,3.63c.87.74,2.12,1.11,3.77,1.11.9,0,1.77-.08,2.62-.25.41-.08.83-.19,1.24-.31.64-.2,1.3.27,1.3.95v2.47c0,.44-.28.83-.69.96-.59.18-1.2.32-1.84.43-.89.16-1.89.24-3.01.24Z"/>
    <path class="cls-3" d="m3,54.25v-25.82c0-1.52.46-2.92,1.2-3.61L26.94,3.44c.67-.63,1.46-.59,2.11.11l21.93,23.62c.67.73,1.09,2.06,1.09,3.5v8.47"/>
    <path class="cls-2" d="m17.64,55.2V21.52c0-.57.46-1.02,1.02-1.02h8.36c1.47,0,2.68.27,3.63.81.94.54,1.65,1.29,2.11,2.25.47.96.7,2.08.7,3.35s-.3,2.28-.91,3.21c-.61.92-1.41,1.63-2.42,2.11.21.17.38.37.53.6.15.23.32.56.5.97l1.44,3.3c.3.68-.2,1.43-.94,1.43h-3.25c-.41,0-.77-.24-.94-.61l-1.64-3.73c-.15-.34-.33-.57-.55-.71-.21-.14-.52-.21-.91-.21h-.46c-.57,0-1.02.46-1.02,1.02v20.77c0,.8-.65,1.45-1.45,1.45h-2.49c-.73,0-1.32-.59-1.32-1.32Zm5.26-26.99c0,.57.46,1.02,1.02,1.02h1.75c.77,0,1.36-.2,1.78-.6.42-.4.63-.98.63-1.72,0-1.59-.75-2.38-2.24-2.38h-1.92c-.57,0-1.02.46-1.02,1.02v2.66Z"/>
  </g>
</svg>