<?xml version="1.0" encoding="UTF-8"?>
<svg id="Layer_2" data-name="Layer 2" xmlns="http://www.w3.org/2000/svg" viewBox="0 0 661.61 419.54">
  <defs>
    <style>
      .cls-1 {
        fill: #40507f;
      }

      .cls-1, .cls-2, .cls-3, .cls-4, .cls-5, .cls-6, .cls-7, .cls-8, .cls-9, .cls-10, .cls-11, .cls-12, .cls-13, .cls-14, .cls-15, .cls-16, .cls-17 {
        stroke-width: 0px;
      }

      .cls-18 {
        fill: none;
        stroke: #fff;
        stroke-miterlimit: 10;
      }

      .cls-2 {
        fill: #ff9c85;
      }

      .cls-3 {
        fill: #58595b;
      }

      .cls-4 {
        fill: #e6e7e8;
      }

      .cls-6 {
        fill: #534579;
      }

      .cls-7 {
        fill: #8dc63f;
      }

      .cls-8 {
        fill: #00a651;
      }

      .cls-9 {
        fill: #ef4136;
      }

      .cls-10 {
        fill: #1c75bc;
      }

      .cls-11 {
        fill: #fff;
      }

      .cls-12 {
        fill: #939598;
      }

      .cls-13 {
        fill: #d1d3d4;
      }

      .cls-14 {
        fill: #f48462;
      }

      .cls-15 {
        fill: #efa459;
      }

      .cls-16 {
        fill: #f7b369;
      }

      .cls-17 {
        fill: #d2f2fa;
      }
    </style>
  </defs>
  <g id="Layer_1-2" data-name="Layer 1">
    <path class="cls-5" d="m538.47,69.13s29.09,46.75-10.18,51.84c-39.27,5.09,10.18-51.84,10.18-51.84Z"/>
    <path class="cls-8" d="m600.54,198c2.88-2.3,63.32-10.99,61,73.57-2.32,84.56-96.91,133.02-200.74,114.78-103.83-18.24-5.54-139.5-5.54-139.5l145.29-48.85Z"/>
    <polygon class="cls-2" points="417.51 328.8 419.29 348.67 457.45 348.67 457.45 326.17 417.51 328.8"/>
    <polygon class="cls-2" points="485.57 337.98 489.42 357.9 531.42 347.94 524.08 326.17 485.57 337.98"/>
    <path class="cls-1" d="m461.92,216.78s6.85-71.06,32.32-83.27c25.47-12.22,66.68.35,66.68.35l-1.85,95.04-97.15-12.11Z"/>
    <path class="cls-9" d="m478.06,212.8s-55.18-13.43-70.31,9.89c-15.13,23.32,6.03,112.3,6.03,112.3h50.81l13.47-122.18Z"/>
    <path class="cls-9" d="m595.25,233.3s13.89,42.65-9.14,51.24c-23.03,8.59-70.78,8.86-70.78,8.86l21.53,38-69.26,20.52s-57.51-103.85-22.51-131.53c35.01-27.68,108.69,12.62,108.69,12.62l41.46.29Z"/>
    <path class="cls-15" d="m416.25,349.25s-13.21,15.58-16.28,17.06c-3.07,1.48-35.09,12.26-41.23,18.27-6.14,6.01-6.58,17.83-4.82,18.94s107.07,0,107.07,0l1.1-50.79-45.85-3.49Z"/>
    <path class="cls-16" d="m483.12,349.52s-5.37,20.88-9.71,23.07-22.97,13.89-33.09,24.51c-8.49,8.9,0,14.01,0,14.01h58.68l50.44-37.06-18.02-38.54-48.3,14Z"/>
    <path class="cls-11" d="m405.68,348.67s14.69,16.84,11.33,18.2c-3.36,1.37-31.72-2.97-30.99-6.01.74-3.03,16.26-12.44,19.66-12.19Z"/>
    <path class="cls-11" d="m477.64,362.16s18.83,12.03,15.99,14.29c-2.84,2.26-31.28,6.06-31.43,2.94-.15-3.12,12.11-16.51,15.44-17.23Z"/>
    <path class="cls-2" d="m527.97,112.02l2.34,14.96s-2.38,4.86-12.16,7.37c-7.29,1.87-10.11.87-10.11.87l-.16-7.76-.14-7.58,17.33-6.73,2.91-1.13Z"/>
    <path class="cls-5" d="m525.08,113.2c.04.47-.05,1.05-.22,1.72-2.36,9.12-12.43,12.71-16.63,13.82l-.41-8.55,17.26-6.99Z"/>
    <path class="cls-2" d="m497.47,82.15s-5.29,22.79.23,34.01c5.52,11.22,15.96,7.35,21.99,3.87,6.03-3.49,8.29-8,8.29-8,0,0,6.41.92,9.4-5.43,2.99-6.36-.69-12.33-4.41-13.17-3.72-.84-7.35,2.41-7.35,2.41l2.07-6.72s-19.29-28.62-30.22-6.96Z"/>
    <path class="cls-5" d="m503.29,108.73c-.23,0-.46-.12-.58-.35-2.25-4.22.03-9.4.13-9.61.15-.33.54-.47.86-.33.33.15.48.53.33.86-.02.05-2.11,4.82-.17,8.46.17.32.05.71-.27.89-.09.05-.2.08-.3.08Z"/>
    <path class="cls-5" d="m528.29,105.51c-.12,0-.24-.03-.35-.1-.3-.19-.39-.6-.2-.9l4.55-7.16c.2-.3.6-.39.9-.2.3.19.39.6.2.9l-4.55,7.16c-.13.2-.34.3-.55.3Z"/>
    <path class="cls-5" d="m529.96,102.89c-.35,0-.64-.27-.65-.63-.02-.36.27-.67.63-.68l4.07-.16c.33.02.67.27.68.63.02.36-.27.67-.62.68l-4.07.16s-.02,0-.03,0Z"/>
    <path class="cls-11" d="m498.34,204.58c-.2,0-.4-.09-.52-.26-.05-.06-4.93-6.58-8.81-16.21-5.99-14.85-.27-36.24-.02-37.15.09-.35.44-.56.8-.46.35.1.55.46.46.8-.06.22-5.84,21.87-.02,36.31,3.81,9.47,8.59,15.85,8.64,15.91.22.29.16.7-.13.92-.12.09-.26.13-.39.13Z"/>
    <path class="cls-5" d="m510.5,113.98c-1.82,0-3.41-1.07-3.5-1.14-.19-.13-.29-.34-.28-.57s.14-.43.33-.54l7.7-4.32c.21-.12.47-.11.68.02.2.13.32.37.29.61-.01.13-.33,3.25-2.76,5.12-.79.61-1.65.82-2.46.82Zm-1.75-1.7c.92.38,2.31.69,3.42-.16,1.06-.81,1.63-1.95,1.93-2.84l-5.35,3Z"/>
    <path class="cls-5" d="m513.52,90.82c-.19,0-.39-.09-.51-.25-1.33-1.69-3.8-.67-3.91-.63-.34.13-.71-.02-.86-.35-.14-.33.01-.72.34-.86.14-.06,3.5-1.45,5.45,1.02.22.28.17.7-.11.92-.12.09-.27.14-.41.14Z"/>
    <path class="cls-5" d="m496.83,91.52c-.14,0-.28-.05-.4-.14-.28-.22-.34-.63-.12-.92.06-.08,1.47-1.89,3.33-2.02.94-.08,1.75.28,2.5,1.02.26.25.26.67,0,.92-.26.26-.67.26-.93,0-.47-.47-.96-.67-1.48-.64-1.26.08-2.37,1.5-2.38,1.51-.13.16-.32.25-.52.25Z"/>
    <path class="cls-5" d="m499.49,100.35c-.35,0-.64-.27-.65-.63l-.16-3.74-1.63-1.37c-.28-.23-.31-.64-.08-.92.23-.28.65-.31.92-.08l1.85,1.56c.14.12.22.29.23.47l.18,4.02c.02.36-.26.67-.62.68-.01,0-.02,0-.03,0Z"/>
    <path class="cls-5" d="m511.31,99.04c-.34,0-.63-.27-.65-.61l-.23-3.7-2.33-1.55c-.3-.2-.38-.61-.18-.91.2-.3.61-.38.91-.18l2.6,1.73c.17.11.27.3.29.5l.26,4.02c.02.36-.25.67-.61.7h-.04Z"/>
    <path class="cls-5" d="m524.82,95.67s-10.62-1.42-15.15-8.51c-4.53-7.09-4.29-10.46-4.29-10.46,0,0-5.24,3.04-7.1,7.01-1.86,3.96-2.17,6.07-2.17,6.07,0,0-1.76-8.52-.86-11.13s5.85-17.23,26.24-15.44c30.91,2.7,18.34,27.8,3.33,32.45Z"/>
    <path class="cls-2" d="m528.53,191.91s-.94-.41-4.93-1.84c-3.78-1.35-17.42-.32-17.42-.32,0,0-11.86,1.75-21.74,5.65-9.88,3.9-8.54,8.35-8.54,8.35,0,0-6.36,3.34-4.01,6.15,2.35,2.81,12.48,1.1,12.48,1.1,0,0-12.89,3.63-7.97,6.89,4.92,3.25,21.35-2.04,21.35-2.04,0,0,24.36,11.26,33.3,3.37,8.93-7.89-2.51-27.31-2.51-27.31Z"/>
    <path class="cls-1" d="m523.5,188.44l-9.94,39.77s64.73,50.9,91.78,10.99c27.04-39.91-23.27-99.72-44.42-105.34-21.15-5.62-10.47,58.66-10.47,58.66l-26.95-4.08Z"/>
    <path class="cls-1" d="m515.34,294.05c-.12,0-.23-.03-.34-.09-1.62-.97-15.89-9.67-15.81-15.55.02-1.36.75-2.45,2.17-3.25,1.5-.84,3.01-.93,4.5-.29,6.19,2.68,9.95,17.73,10.11,18.37.06.26-.04.53-.25.68-.12.09-.25.13-.39.13Zm-11.43-18.29c-.63,0-1.26.18-1.9.54-1,.56-1.49,1.26-1.5,2.13-.05,3.92,8.91,10.44,13.77,13.54-1.14-3.93-4.43-13.95-8.93-15.89-.48-.21-.96-.32-1.44-.32Z"/>
    <path class="cls-11" d="m571.92,194.64c-.08,0-.16-.01-.24-.04-13.75-5.32-41.43-4.44-41.71-4.43-.37,0-.66-.28-.67-.63-.01-.36.27-.66.63-.68,1.14-.04,28.23-.89,42.23,4.52.34.13.5.51.37.85-.1.26-.34.42-.61.42Z"/>
    <path class="cls-11" d="m550.94,190.72c-.27,0-.52-.17-.61-.43-.11-.29,0-.61.26-.77,1.52-.99,14.98-9.59,19.77-6.17.88.63.93,1.28.82,1.71-.77,3.02-15.62,5.09-20.16,5.66-.03,0-.06,0-.08,0Zm16.45-6.88c-3.64,0-9.53,2.89-13.45,5.16,8.72-1.27,15.88-3.15,15.98-4.27,0,0-.03-.12-.31-.32-.56-.4-1.32-.57-2.21-.57Z"/>
    <path class="cls-11" d="m508.55,135.88c-.29,0-.47,0-.53,0-.36-.01-.64-.31-.63-.67,0-.36.3-.64.65-.64.02,0,.06,0,.34,0,2.25,0,15.67-.33,21.4-7.98.22-.29.62-.35.92-.13.29.22.35.63.13.92-6.05,8.06-19.4,8.51-22.28,8.51Z"/>
    <path class="cls-11" d="m476.31,217.15h-82.61l-23.59-53.37h79.36c1.98,0,3.77,1.17,4.57,2.98l22.28,50.39Z"/>
    <path class="cls-13" d="m469.14,217.15h-82.61l-21.06-47.63c-1.19-2.7.78-5.74,3.74-5.74h76.34l23.59,53.37Z"/>
    <path class="cls-3" d="m504.01,223.89h-116.64c-1.86,0-3.37-1.51-3.37-3.37s1.51-3.37,3.37-3.37h116.64c1.86,0,3.37,1.51,3.37,3.37s-1.51,3.37-3.37,3.37Z"/>
    <path class="cls-5" d="m475.9,204.41c-.23,0-.44-.12-.57-.33-.18-.31-.07-.71.24-.89.08-.05,8.62-4.94,19.43-8.01.36-.11.71.1.81.45s-.1.71-.45.81c-10.64,3.03-19.05,7.84-19.14,7.89-.1.06-.22.09-.33.09Z"/>
    <path class="cls-5" d="m483.15,211.33c-.21,0-.42-.1-.54-.29-.2-.3-.12-.71.18-.91.3-.2,7.36-4.87,13.99-5.43.36-.04.68.23.71.6.03.36-.24.68-.6.71-6.29.54-13.31,5.17-13.38,5.22-.11.07-.23.11-.36.11Z"/>
    <path class="cls-17" d="m593.84,349.32c-.22,0-.44-.11-.56-.32-.19-.31-.08-.71.22-.9,27.32-16.35,38.22-40.92,38.33-41.17.15-.33.53-.48.86-.34.33.14.48.53.34.86-.11.25-11.16,25.2-38.85,41.77-.1.06-.22.09-.34.09Z"/>
    <path class="cls-5" d="m530.31,74.05s11.02-29.74,23.81-17.93-11.9,30.99-11.9,30.99l-11.9-13.06Z"/>
    <path class="cls-8" d="m60.12,195.71c-2.84-2.26-62.33-10.82-60.06,72.43,2.28,83.25,95.41,130.96,197.64,113.01,102.22-17.96,5.46-137.34,5.46-137.34l-143.04-48.1Z"/>
    <path class="cls-17" d="m66.72,344.68c-.11,0-.23-.03-.33-.09-27.26-16.31-38.14-40.88-38.25-41.13-.14-.33.01-.71.34-.85.31-.14.7,0,.85.33.11.24,10.83,24.44,37.73,40.53.3.18.4.58.22.88-.12.2-.33.31-.55.31Z"/>
    <path class="cls-14" d="m215.51,146.43s9.32.68,6.35,13.86c-2.97,13.18-11.46-3.21-11.46-3.21l5.11-10.65Z"/>
    <path class="cls-1" d="m307.47,400.31c-1.81,1.04-106.83-4.4-109.19-6.57-.84-.77-.79-5.77-.12-12.88,1.22-12.94,8.53-35.04,12.58-48.67,0,0,36.76,2.47,40.03,4.56,3.3,2.11,38.71,31.99,38.71,31.99,0,0,13.51,5.14,18.35,13.13,1.41,2.34,2.14,4.84,2.38,7.17.61,5.64-1.48,10.57-2.74,11.27Z"/>
    <path class="cls-11" d="m307.47,400.31c-1.81,1.04-106.83-4.4-109.19-6.57-.84-.77-.79-5.77-.12-12.88l112.06,8.18c.61,5.64-1.48,10.57-2.74,11.27Z"/>
    <path class="cls-11" d="m277.34,359.38c-.05,0-30.73-2.46-30.73-2.46-.28-.02-.51-.22-.58-.49-.07-.27.04-.55.27-.71l15.06-9.84c.3-.2.71-.11.91.19.2.3.11.71-.19.91l-13.46,8.8,28.77,2.3c.36.03.63.34.6.71-.03.34-.32.6-.65.6Z"/>
    <path class="cls-10" d="m178.95,235.05s58.31-41.23,108.63-28.57c50.32,12.66-23.17,135.04-23.17,135.04l-73.15.16,7.13-35.06-87.82-.17,38.75-54.87,29.63-16.53Z"/>
    <path class="cls-11" d="m246.41,242.28c-.12,0-.24-.03-.35-.1-.3-.19-.39-.6-.2-.9.06-.1,6.62-10.4,15.42-17.91.27-.24.69-.2.92.07.23.27.2.69-.07.92-8.65,7.38-15.11,17.51-15.17,17.61-.12.2-.34.31-.55.31Z"/>
    <path class="cls-16" d="m170.63,176.86l50.06,15.11s.5,33.84-31.29,43.09c-31.79,9.24-35.48-29.3-35.48-29.3l16.71-28.89Z"/>
    <path class="cls-14" d="m197.67,183.25s-1.55,19.01,13.59,17.21c15.15-1.81,14.22-23.56,14.22-23.56l-27.81,6.36Z"/>
    <path class="cls-16" d="m79.46,280.05s-29.18-105.34-4.61-134.33c24.57-28.99,81.6-4.84,81.6-4.84l27.29,96.67-104.29,42.49Z"/>
    <path class="cls-14" d="m120.13,204.58s14.75-23.36,21.91-26.02c7.16-2.66,24.46.84,24.47,2.92s-16.02,4.59-16.02,4.59c0,0,9.01,15.75,9.15,19.28.15,3.54-7.98,13.84-9.77,14.87-1.79,1.03-6.27-4.72-6.27-4.72,0,0-4.95,5.99-11.93,7.83-6.97,1.85-14.98-8.74-14.98-8.74l3.43-10.02Z"/>
    <path class="cls-5" d="m142.09,192.35c-.37,0-.69-.26-.75-.64-.07-.41.21-.81.62-.88l9.61-1.62c.41-.06.81.21.88.63s-.21.81-.62.88l-9.61,1.62s-.08.01-.13.01Z"/>
    <path class="cls-14" d="m96.07,116.08l.46,18.79s3.52,5.32,14.54,5.94c8.21.47,10.36-2.38,10.36-2.38l-.7-8.56-1.35-9.25-19.96-3.88-3.35-.65Z"/>
    <path class="cls-5" d="m99.73,118.34c.06.49.27,1.07.59,1.73,4.41,8.91,15.84,10.61,20.54,10.91l-1.36-8.87-19.77-3.77Z"/>
    <path class="cls-14" d="m121.87,80.9s10.01,22.35,6.59,34.99c-3.42,12.64-14.92,10.76-21.82,8.38s-10.12-6.56-10.12-6.56c0,0-6.4,2.23-10.75-3.7-4.35-5.93-1.76-12.81,1.89-14.41,3.65-1.6,8.03,1,8.03,1l-3.48-6.49s14.08-33.27,29.65-13.21Z"/>
    <path class="cls-5" d="m121.09,109.36c-.06,0-.13,0-.19-.03-.34-.11-.54-.47-.43-.82,1.27-4.15-1.84-8.64-1.87-8.69-.21-.29-.14-.7.16-.91.29-.2.7-.14.91.16.15.2,3.52,5.05,2.06,9.83-.09.28-.35.46-.63.46Z"/>
    <path class="cls-5" d="m94.76,111.07c-.17,0-.35-.07-.47-.2l-6.11-6.45c-.25-.26-.24-.68.02-.92.26-.25.68-.24.92.02l6.11,6.45c.25.26.24.68-.02.92-.13.12-.29.18-.45.18Z"/>
    <path class="cls-5" d="m88.3,109.36c-.32,0-.6-.23-.65-.55-.06-.36.19-.69.55-.75l4.22-.65c.38-.05.69.19.75.55.06.36-.19.69-.55.75l-4.21.65s-.07,0-.1,0Z"/>
    <path class="cls-5" d="m95.69,100.61s2.32,1.51,4-1.12c1.68-2.64-2.02-10.41-2.02-10.41,0,0,6.95,1.56,11.24-.75,4.29-2.31,6.38-8.63,6.38-8.63,0,0,3.18,6.58,12.65,3.66,9.48-2.92,11.26-15.83,1.13-18.44-10.13-2.61-15.65,1.88-15.65,1.88,0,0-1.3-9.36-13.81-4.71-11.4,4.24-13.29,18.53-13.29,18.53,0,0-6.85.33-8.15,7.79-1.3,7.45,7.43,12.82,7.43,12.82,0,0,4.95-2.91,10.11-.61Z"/>
    <path class="cls-5" d="m110.9,101.01c-.32,0-.61-.24-.65-.57l-.54-4.18c-.05-.36.2-.69.56-.73.39-.05.69.21.73.56l.54,4.18c.05.36-.2.69-.56.73-.03,0-.06,0-.08,0Z"/>
    <path class="cls-1" d="m180.65,234.29c-.33,0-.62-.25-.65-.59-1.36-13.75-7.98-32.8-8.04-32.99-.12-.34.06-.71.4-.83.35-.12.72.06.84.4.06.19,6.74,19.39,8.11,33.3.04.36-.23.68-.59.72-.02,0-.04,0-.06,0Z"/>
    <path class="cls-5" d="m123.31,99.99c-.32,0-.6-.23-.65-.56l-.62-4.17c-.05-.36.19-.69.55-.74.39-.04.69.19.74.55l.62,4.17c.05.36-.19.69-.55.74-.03,0-.06,0-.1,0Z"/>
    <path class="cls-5" d="m106.99,93.01c-.1,0-.2-.02-.3-.07-.32-.16-.45-.56-.28-.88,1.5-2.92,5.2-2.16,5.36-2.13.35.08.58.42.5.78-.08.35-.43.59-.77.5-.11-.02-2.88-.57-3.92,1.45-.12.22-.34.36-.58.36Z"/>
    <path class="cls-7" d="m135.9,205.18l56.98,11.01c2.77.54,5.44-1.27,5.98-4.04l15.71-81.29c.54-2.77-1.27-5.44-4.04-5.98l-56.98-11.01c-2.77-.54-5.44,1.27-5.98,4.04l-15.71,81.29c-.53,2.77,1.27,5.44,4.04,5.98Z"/>
    <path class="cls-8" d="m139.86,205.94l56.98,11.01c2.77.54,5.44-1.27,5.98-4.04l15.71-81.29c.54-2.77-1.27-5.44-4.04-5.98l-56.98-11.01c-2.77-.54-5.44,1.27-5.98,4.04l-15.71,81.29c-.53,2.77,1.28,5.44,4.04,5.98Z"/>
    <path class="cls-11" d="m193.77,135.27c-.92,0-1.86-.09-2.8-.27l-14.26-2.78c-5.64-1.1-9.6-5.24-8.83-9.23l1.16-5.96c.07-.35.38-.59.77-.52.35.07.58.41.51.77l-1.16,5.96c-.64,3.28,2.86,6.74,7.79,7.7l14.26,2.78c2.44.48,4.85.27,6.78-.57,1.85-.8,3.04-2.1,3.34-3.64l1.16-5.96c.07-.35.37-.58.77-.52.35.07.58.41.51.77l-1.16,5.96c-.38,1.98-1.84,3.61-4.1,4.59-1.41.61-3.04.93-4.74.93Z"/>
    <path class="cls-5" d="m119.1,90.4c-.13,0-.26-.04-.37-.11-.3-.2-.38-.61-.17-.91.61-.9,1.4-1.41,2.34-1.53,1.93-.24,3.72,1.33,3.8,1.4.27.24.3.65.06.92-.24.27-.65.3-.92.06-.01-.01-1.44-1.24-2.77-1.08-.56.07-1.02.39-1.42.97-.12.18-.33.28-.54.28Z"/>
    <path class="cls-14" d="m220.97,171.19s13.3-1.52,9.21-7.64c-4.09-6.12-28.15-9.04-30.72-1.86-2.56,7.18,21.51,9.5,21.51,9.5Z"/>
    <path class="cls-14" d="m219.52,182.17s13.3-1.52,9.21-7.64c-4.09-6.12-28.15-9.04-30.72-1.86-2.56,7.18,21.51,9.5,21.51,9.5Z"/>
    <path class="cls-14" d="m211.83,191.36c2.86.95,5.92,1.25,8.86.6,2.63-.58,4.92-1.89,3.6-4.87-2.65-5.95-23.18-12.13-26.5-6.26-2.48,4.38,8.37,8.64,14.05,10.52Z"/>
    <path class="cls-5" d="m222.53,169.62c-.05,0-15.5-1.16-15.5-1.16-.36-.03-.63-.34-.6-.7.03-.36.28-.63.7-.6l15.44,1.16c.36.03.63.34.6.7-.02.34-.31.6-.65.6Z"/>
    <path class="cls-5" d="m220.03,181.78s-15.5-1.16-15.5-1.16c-.36-.03-.63-.34-.6-.7.03-.36.3-.62.7-.6l15.44,1.16c.36.03.63.34.6.7-.03.34-.31.61-.65.61Z"/>
    <path class="cls-6" d="m102.51,282.17c-.36,0-.68-.24-.78-.6l-2.6-9.78c-.11-.43.14-.88.57-.99.45-.11.87.14.99.57l2.6,9.78c.11.43-.14.88-.57.99-.07.02-.14.03-.21.03Z"/>
    <path class="cls-6" d="m179.23,257.6c-.44,0-.8-.35-.81-.79l-.27-10.42c-.01-.44.34-.82.79-.83.39-.05.82.34.83.79l.27,10.42c.01.44-.34.82-.79.83h-.02Z"/>
    <path class="cls-6" d="m170.63,264.08c-.44,0-.81-.36-.81-.81l-.02-11.05c0-.45.36-.81.81-.81s.81.36.81.81l.02,11.05c0,.44-.36.81-.81.81h0Z"/>
    <path class="cls-5" d="m115.75,115.7c-2.7,0-4.65-1.99-5.39-3.22-.18-.31-.08-.71.23-.89.3-.19.71-.09.89.23.08.13,2.05,3.32,5.41,2.43.34-.09.71.12.8.47s-.12.71-.47.8c-.51.13-1.01.19-1.48.19Z"/>
    <path class="cls-1" d="m402.62,360.16c-.84,1.91-88.69,59.73-91.87,59.38-1.14-.12-4.06-4.17-7.72-10.3-6.68-11.15-13.88-33.29-18.69-46.67,0,0,31.08-19.78,34.96-20.04,3.91-.26,50.13,2.85,50.13,2.85,0,0,13.93-3.86,22.57-.29,2.53,1.05,4.59,2.63,6.17,4.36,3.83,4.18,5.07,9.39,4.47,10.7Z"/>
    <path class="cls-11" d="m402.62,360.16c-.84,1.91-88.69,59.73-91.87,59.38-1.14-.12-4.06-4.17-7.72-10.3l95.13-59.78c3.83,4.18,5.07,9.39,4.47,10.7Z"/>
    <path class="cls-11" d="m330.44,361.52c-.15,0-.29-.05-.41-.15-.22-.18-.29-.47-.2-.74l6.31-16.85c.13-.34.5-.51.84-.39.34.13.51.5.39.84l-5.64,15.06,24.54-15.18c.3-.19.71-.09.9.21s.1.71-.21.9l-26.17,16.19c-.11.06-.23.09-.35.09Z"/>
    <path class="cls-10" d="m79.46,280.05s125.72-63.94,153.44-54.83c36.39,11.96,102.32,110.63,102.32,110.63l-57.79,55.93s-59.85-80.78-69.44-79.71c-11.08,1.24-73.42,27.46-95.61,20.33-22.18-7.13-32.92-52.36-32.92-52.36Z"/>
    <path class="cls-11" d="m210.01,312.74c-.08,0-.15-.01-.23-.04-.24-.09-.41-.31-.43-.57-.04-.53-.79-13.05,3.97-17.76,1.34-1.32,3-1.91,4.87-1.76,1.67.13,2.74.78,3.18,1.92,1.79,4.73-9.58,16.67-10.88,18.02-.13.13-.3.2-.47.2Zm7.62-18.85c-1.32,0-2.43.46-3.39,1.41-3.42,3.37-3.68,11.73-3.63,15.2,4.62-4.99,10.58-12.75,9.53-15.51-.09-.23-.36-.95-2.05-1.08-.15-.01-.3-.02-.46-.02Z"/>
    <path class="cls-16" d="m87.44,136.17S.63,173.73,15.71,238.56c14.37,61.77,113.45,7.82,113.45,7.82l-4.9-48.48-46.23,4.94,9.41-66.66Z"/>
    <path class="cls-1" d="m62.5,201.23c-.3,0-.58-.21-.64-.52-.07-.35.15-.7.51-.77,25.54-5.28,54.45-3.53,54.73-3.51.36.02.63.33.61.69s-.25.66-.7.61c-.28-.01-29.02-1.76-54.39,3.49-.05,0-.09.01-.13.01Z"/>
    <path class="cls-1" d="m86.02,197.44c-3.07,0-17.35-.2-19.2-3.87-.28-.57-.44-1.48.41-2.63.74-1,1.81-1.6,3.16-1.79,5.99-.82,16.01,6.78,16.44,7.1.22.17.31.46.22.73-.09.26-.34.44-.62.45-.1,0-.24,0-.41,0Zm-14.64-7.04c-.28,0-.55.02-.81.05-1.01.14-1.75.56-2.29,1.27-.55.74-.37,1.12-.29,1.26,1.08,2.14,9.9,3.01,16.38,3.13-2.88-1.97-8.89-5.71-12.99-5.71Z"/>
    <path class="cls-1" d="m83.49,263.93c-.26,0-.51-.16-.61-.42-.13-.34.04-.72.38-.84.3-.12,30.61-11.78,45.55-21.59.3-.2.71-.11.91.19.2.3.11.71-.19.91-15.05,9.88-45.49,21.6-45.8,21.72-.08.03-.16.04-.23.04Z"/>
    <path class="cls-11" d="m101.94,152.12c-.33,0-.65-.05-.93-.14-4.48-1.52-5.09-16.25-5.15-17.93-.01-.27.15-.52.4-.63.25-.1.54-.04.73.16.05.05,4.94,5.23,14.17,6.58,1.81.27,3.57.3,5.28.12.11-.05.23-.06.36-.04.61-.08,1.21-.19,1.8-.32,1.62-.38,2.73-1.91,2.57-3.56l-.4-4.29c-.02-.27.12-.53.36-.65s.53-.08.73.11c1.47,1.36,8.8,8.27,8.42,11.08-.07.51-.36.91-.82,1.15-2.73,1.4-10.54-1.34-12.6-2.1-1.95,2.02-10.4,10.47-14.92,10.47Zm-4.7-16.53c.36,5.98,1.68,14.3,4.19,15.15,2.49.88,9.17-4.66,13.56-9.04-1.32.04-2.65-.04-4.01-.23-7.11-1.04-11.7-4.18-13.73-5.88Zm22,5.51c3.6,1.18,8.13,2.26,9.63,1.49.08-.04.11-.08.12-.16.19-1.39-3.51-5.6-6.75-8.75l.24,2.56c.2,2.18-1.17,4.21-3.24,4.86Z"/>
    <rect class="cls-4" x="267.05" y="1.22" width="162.34" height="108.14" rx="7.52" ry="7.52"/>
    <path class="cls-8" d="m268.92,0h158.08c1.32,0,2.39,1.07,2.39,2.39v5.56h-162.34V1.87c0-1.03.84-1.87,1.87-1.87Z"/>
    <rect class="cls-11" x="423.37" y=".27" width="1.49" height="7.41" rx=".74" ry=".74" transform="translate(117.98 297.53) rotate(-44.34)"/>
    <rect class="cls-11" x="423.37" y=".27" width="1.49" height="7.41" rx=".74" ry=".74" transform="translate(130.56 -302.16) rotate(45.66)"/>
    <rect class="cls-18" x="411.47" y="1.52" width="6.72" height="4.9" rx=".86" ry=".86"/>
    <rect class="cls-18" x="399.84" y="5.92" width="7.57" height=".5" rx=".16" ry=".16"/>
    <circle class="cls-12" cx="400.24" cy="55.29" r="20.42"/>
    <rect class="cls-12" x="277.75" y="25.07" width="29.04" height="7.03" rx="3.52" ry="3.52"/>
    <rect class="cls-12" x="277.75" y="37.45" width="76.43" height="7.03" rx="3.52" ry="3.52"/>
    <rect class="cls-12" x="277.75" y="50.37" width="76.43" height="7.03" rx="3.52" ry="3.52"/>
    <rect class="cls-12" x="277.75" y="63.29" width="76.43" height="7.03" rx="3.52" ry="3.52"/>
    <rect class="cls-12" x="277.75" y="75.71" width="18.04" height="7.03" rx="3.52" ry="3.52"/>
    <rect class="cls-12" x="300.45" y="76.2" width="18.04" height="7.03" rx="3.52" ry="3.52"/>
  </g>
</svg>