<?xml version="1.0" encoding="UTF-8"?>
<svg id="Layer_2" data-name="Layer 2" xmlns="http://www.w3.org/2000/svg" viewBox="0 0 200.68 87.97">
  <defs>
    <style>
      .cls-1, .cls-2 {
        stroke-width: 0px;
      }

      .cls-1, .cls-3 {
        fill: #00a14b;
      }

      .cls-3, .cls-4, .cls-5, .cls-6, .cls-7 {
        stroke: #231f20;
      }

      .cls-3, .cls-4, .cls-5, .cls-7, .cls-8 {
        stroke-miterlimit: 10;
      }

      .cls-4, .cls-6, .cls-8 {
        fill: none;
      }

      .cls-4, .cls-8 {
        stroke-linecap: round;
        stroke-width: 4px;
      }

      .cls-5 {
        fill: #231f20;
      }

      .cls-6 {
        stroke-linejoin: round;
        stroke-width: 1.3px;
      }

      .cls-7 {
        fill: #c49a6c;
      }

      .cls-8 {
        stroke: #00a14f;
      }
    </style>
  </defs>
  <g id="Layer_1-2" data-name="Layer 1">
    <g>
      <path class="cls-2" d="m22.51,83.91v-33.68c0-.57.46-1.02,1.02-1.02h8.36c1.47,0,2.68.27,3.63.81.94.54,1.65,1.29,2.11,2.25.47.96.7,2.08.7,3.35s-.3,2.28-.91,3.21c-.61.92-1.41,1.63-2.42,2.11.21.17.38.37.53.6.15.23.32.56.5.97l1.44,3.3c.3.68-.2,1.43-.94,1.43h-3.25c-.41,0-.77-.24-.94-.61l-1.64-3.73c-.15-.34-.33-.57-.55-.71-.21-.14-.52-.21-.91-.21h-.46c-.57,0-1.02.46-1.02,1.02v20.77c0,.8-.65,1.45-1.45,1.45h-2.49c-.73,0-1.32-.59-1.32-1.32Zm5.26-26.99c0,.57.46,1.02,1.02,1.02h1.75c.77,0,1.36-.2,1.78-.6.42-.4.63-.98.63-1.72,0-1.59-.75-2.38-2.24-2.38h-1.92c-.57,0-1.02.46-1.02,1.02v2.66Z"/>
      <path class="cls-2" d="m48.69,67.52c-1.68,0-3.16-.28-4.44-.83-1.28-.55-2.28-1.36-3.01-2.44-.73-1.07-1.09-2.39-1.09-3.96v-10.07c0-.57.46-1.02,1.02-1.02h3.22c.57,0,1.02.46,1.02,1.02v9.5c0,2.2,1.09,3.3,3.28,3.3,1.04,0,1.85-.27,2.41-.81.56-.54.84-1.37.84-2.49v-9.5c0-.57.46-1.02,1.02-1.02h3.22c.57,0,1.02.46,1.02,1.02v10.07c0,1.57-.36,2.89-1.08,3.96-.72,1.07-1.72,1.89-3,2.44-1.28.55-2.76.83-4.44.83Z"/>
      <path class="cls-2" d="m59.58,66.22v-15.99c0-.57.46-1.02,1.02-1.02h3.46c.39,0,.75.22.92.57l3.28,6.7c.37.77,1.47.76,1.84,0l3.25-6.69c.17-.35.53-.58.92-.58h3.43c.57,0,1.02.46,1.02,1.02v15.99c0,.57-.46,1.02-1.02,1.02h-3.22c-.57,0-1.02-.46-1.02-1.02v-3.54c0-1.09-1.47-1.42-1.94-.45l-.66,1.36c-.17.35-.53.58-.92.58h-1.55c-.39,0-.75-.22-.92-.57l-.69-1.4c-.48-.97-1.94-.63-1.94.45v3.58c0,.57-.46,1.02-1.02,1.02h-3.22c-.57,0-1.02-.46-1.02-1.02Z"/>
      <path class="cls-2" d="m81.22,65.85l6.13-15.99c.15-.4.53-.66.96-.66h4.16c.42,0,.8.26.96.66l6.13,15.99c.26.67-.24,1.39-.96,1.39h-3.3c-.42,0-.8-.26-.95-.65l-1-2.54c-.15-.39-.53-.65-.95-.65h-4.03c-.42,0-.8.26-.95.65l-.98,2.53c-.15.39-.53.65-.95.65h-3.3c-.72,0-1.21-.72-.96-1.39Zm8.62-6.23h1.06c.72,0,1.21-.72.96-1.39l-.53-1.39c-.33-.88-1.58-.88-1.91,0l-.53,1.39c-.26.67.24,1.39.96,1.39Z"/>
      <path class="cls-2" d="m102.05,66.22v-15.99c0-.57.46-1.02,1.02-1.02h3.22c.57,0,1.02.46,1.02,1.02v4.67c0,.57.46,1.02,1.02,1.02h4.17c.57,0,1.02-.46,1.02-1.02v-4.67c0-.57.46-1.02,1.02-1.02h3.22c.57,0,1.02.46,1.02,1.02v15.99c0,.57-.46,1.02-1.02,1.02h-3.22c-.57,0-1.02-.46-1.02-1.02v-4.67c0-.57-.46-1.02-1.02-1.02h-4.17c-.57,0-1.02.46-1.02,1.02v4.67c0,.57-.46,1.02-1.02,1.02h-3.22c-.57,0-1.02-.46-1.02-1.02Z"/>
    </g>
    <g>
      <path class="cls-1" d="m92.1,87.97c-3.27,0-5.76-.8-7.48-2.41s-2.58-3.87-2.58-6.8.84-5.34,2.52-6.96c1.68-1.61,4.18-2.42,7.5-2.42,1.12,0,2.12.08,3,.25.63.12,1.25.28,1.84.47.41.13.68.52.68.95v2.44c0,.68-.66,1.15-1.3.95-1.22-.38-2.51-.57-3.85-.57-1.7,0-2.96.39-3.78,1.16-.82.77-1.23,2.02-1.23,3.74s.43,2.89,1.3,3.63c.87.74,2.12,1.11,3.77,1.11.9,0,1.77-.08,2.62-.25.41-.08.83-.19,1.24-.31.64-.2,1.3.27,1.3.95v2.47c0,.44-.28.83-.69.96-.59.18-1.2.32-1.84.43-.89.16-1.89.24-3.01.24Z"/>
      <path class="cls-1" d="m107.97,87.97c-2.99,0-5.27-.73-6.85-2.18-1.58-1.46-2.37-3.81-2.37-7.06,0-2.24.35-4.05,1.06-5.42.71-1.37,1.75-2.37,3.12-3,1.37-.62,3.05-.94,5.03-.94s3.65.31,5.03.94c1.37.63,2.41,1.62,3.12,3,.71,1.37,1.06,3.18,1.06,5.42,0,3.25-.79,5.6-2.38,7.06-1.59,1.46-3.86,2.18-6.83,2.18Zm0-4.48c1.34,0,2.32-.38,2.93-1.13.61-.76.91-1.96.91-3.63,0-1.77-.3-3.03-.91-3.77-.61-.74-1.58-1.11-2.93-1.11s-2.32.37-2.93,1.11c-.61.74-.91,1.99-.91,3.77,0,1.66.3,2.87.91,3.63s1.58,1.13,2.93,1.13Z"/>
      <path class="cls-1" d="m127.55,87.97c-1.68,0-3.16-.28-4.44-.83-1.28-.55-2.28-1.36-3.01-2.44-.73-1.07-1.09-2.39-1.09-3.96v-10.09c0-.55.45-1,1-1h3.26c.55,0,1,.45,1,1v9.53c0,2.2,1.09,3.3,3.28,3.3,1.04,0,1.85-.27,2.41-.81.56-.54.84-1.37.84-2.49v-9.53c0-.55.45-1,1-1h3.26c.55,0,1,.45,1,1v10.09c0,1.57-.36,2.89-1.08,3.96-.72,1.07-1.72,1.89-3,2.44-1.28.55-2.76.83-4.44.83Z"/>
      <path class="cls-1" d="m138.44,86.69v-16.03c0-.55.45-1,1-1h8.38c1.47,0,2.68.27,3.63.81.94.54,1.65,1.29,2.11,2.25.47.96.7,2.08.7,3.35s-.3,2.28-.91,3.21c-.61.92-1.41,1.63-2.42,2.11.21.17.38.37.53.6.15.23.32.56.5.97l1.46,3.33c.29.66-.19,1.4-.92,1.4h-3.31c-.4,0-.76-.23-.92-.6l-1.64-3.74c-.15-.34-.33-.57-.55-.71-.21-.14-.52-.21-.91-.21h-.48c-.55,0-1,.45-1,1v3.26c0,.55-.45,1-1,1h-3.26c-.55,0-1-.45-1-1Zm5.26-9.3c0,.55.45,1,1,1h1.77c.77,0,1.36-.2,1.78-.6.42-.4.63-.98.63-1.72,0-1.59-.75-2.38-2.24-2.38h-1.94c-.55,0-1,.45-1,1v2.7Z"/>
      <path class="cls-1" d="m162.13,87.97c-1.21,0-2.36-.1-3.44-.29-.78-.14-1.48-.32-2.09-.55-.4-.15-.68-.52-.68-.95v-2.21c0-.69.68-1.15,1.33-.93.47.16.96.3,1.47.42,1.03.24,1.99.36,2.88.36s1.64-.08,2.11-.24c.48-.16.71-.52.71-1.08,0-.39-.14-.7-.41-.92-.27-.22-.69-.43-1.26-.62-.57-.19-1.31-.42-2.23-.7-1.21-.39-2.17-.82-2.88-1.29-.71-.47-1.22-1.04-1.53-1.71s-.46-1.49-.46-2.46c0-1.77.63-3.12,1.89-4.05,1.26-.92,3.13-1.39,5.61-1.39.99,0,2.01.08,3.07.25.69.11,1.29.23,1.8.35.45.11.76.51.76.97v2.2c0,.67-.65,1.14-1.29.95-.42-.13-.83-.23-1.23-.3-.8-.15-1.56-.22-2.27-.22-.82,0-1.52.07-2.1.2-.58.13-.87.47-.87,1.01,0,.47.25.81.74,1.02.49.21,1.38.49,2.65.83,1.47.39,2.6.87,3.37,1.43.77.56,1.3,1.21,1.58,1.95.28.74.42,1.57.42,2.51,0,1.64-.63,2.96-1.9,3.96-1.27,1-3.19,1.5-5.77,1.5Z"/>
      <path class="cls-1" d="m171.76,86.69v-16.03c0-.55.45-1,1-1h11.66c.55,0,1,.45,1,1v2.03c0,.55-.45,1-1,1h-6.4c-.55,0-1,.45-1,1v.94c0,.55.45,1,1,1h5.36c.55,0,1,.45,1,1v2.09c0,.55-.45,1-1,1h-5.36c-.55,0-1,.45-1,1v.94c0,.55.45,1,1,1h6.4c.55,0,1,.45,1,1v2.03c0,.55-.45,1-1,1h-11.66c-.55,0-1-.45-1-1Z"/>
      <path class="cls-1" d="m193.01,87.97c-1.21,0-2.36-.1-3.44-.29-.78-.14-1.48-.32-2.09-.55-.4-.15-.68-.52-.68-.95v-2.21c0-.69.68-1.15,1.33-.93.47.16.96.3,1.47.42,1.03.24,1.99.36,2.88.36s1.64-.08,2.11-.24c.48-.16.71-.52.71-1.08,0-.39-.14-.7-.41-.92-.27-.22-.69-.43-1.26-.62-.57-.19-1.31-.42-2.23-.7-1.21-.39-2.17-.82-2.88-1.29-.71-.47-1.22-1.04-1.53-1.71s-.46-1.49-.46-2.46c0-1.77.63-3.12,1.89-4.05,1.26-.92,3.13-1.39,5.61-1.39.99,0,2.01.08,3.07.25.69.11,1.29.23,1.8.35.45.11.76.51.76.97v2.2c0,.67-.65,1.14-1.29.95-.42-.13-.83-.23-1.23-.3-.8-.15-1.56-.22-2.27-.22-.82,0-1.52.07-2.1.2-.58.13-.87.47-.87,1.01,0,.47.25.81.74,1.02.49.21,1.38.49,2.65.83,1.47.39,2.6.87,3.37,1.43.77.56,1.3,1.21,1.58,1.95.28.74.42,1.57.42,2.51,0,1.64-.63,2.96-1.9,3.96-1.27,1-3.19,1.5-5.77,1.5Z"/>
    </g>
    <path class="cls-4" d="m2,85.55v-38.85c0-2.29,1.28-4.39,3.32-5.43L68.39,9.11c1.85-.94,4.05-.88,5.84.17l60.8,35.54c1.87,1.09,3.02,3.1,3.02,5.26v12.75"/>
    <path class="cls-8" d="m8.75,85.55v-36.33c0-1.98,1.16-3.8,2.99-4.7l56.81-27.87c1.67-.82,3.65-.76,5.26.14l54.77,30.79c1.68.95,2.72,2.68,2.72,4.56v11.04"/>
    <g>
      <g>
        <g>
          <path class="cls-1" d="m70.99,46.81c-4.33-2.21-9.46-2.21-13.79,0v-14.14c4.33-2.21,9.46-2.21,13.79,0,0,4.71,0,9.43,0,14.14Z"/>
          <path class="cls-6" d="m70.99,46.81c-4.33-2.21-9.46-2.21-13.79,0v-14.14c4.33-2.21,9.46-2.21,13.79,0,0,4.71,0,9.43,0,14.14Z"/>
        </g>
        <g>
          <path class="cls-1" d="m71.03,46.48c-3.61-2.37-7.89-2.9-11.5-1.58v-15.47c3.61-1.31,7.89-.78,11.5,1.58v15.47Z"/>
          <path class="cls-6" d="m71.03,46.48c-3.61-2.37-7.89-2.9-11.5-1.58v-15.47c3.61-1.31,7.89-.78,11.5,1.58v15.47Z"/>
        </g>
        <g>
          <path class="cls-1" d="m71.06,46.15c-2.89-2.53-6.32-3.59-9.21-3.17v-16.79c2.89-.42,6.32.64,9.21,3.17v16.79Z"/>
          <path class="cls-6" d="m71.06,46.15c-2.89-2.53-6.32-3.59-9.21-3.17v-16.79c2.89-.42,6.32.64,9.21,3.17v16.79Z"/>
        </g>
      </g>
      <g>
        <g>
          <path class="cls-1" d="m71.3,46.81c4.33-2.21,9.46-2.21,13.79,0v-14.14c-4.33-2.21-9.46-2.21-13.79,0,0,4.71,0,9.43,0,14.14Z"/>
          <path class="cls-6" d="m71.3,46.81c4.33-2.21,9.46-2.21,13.79,0v-14.14c-4.33-2.21-9.46-2.21-13.79,0,0,4.71,0,9.43,0,14.14Z"/>
        </g>
        <g>
          <path class="cls-1" d="m71.26,46.48c3.61-2.37,7.89-2.9,11.5-1.58v-15.47c-3.61-1.31-7.89-.78-11.5,1.58v15.47Z"/>
          <path class="cls-6" d="m71.26,46.48c3.61-2.37,7.89-2.9,11.5-1.58v-15.47c-3.61-1.31-7.89-.78-11.5,1.58v15.47Z"/>
        </g>
        <g>
          <path class="cls-1" d="m71.23,46.15c2.89-2.53,6.32-3.59,9.21-3.17v-16.79c-2.89-.42-6.32.64-9.21,3.17v16.79Z"/>
          <path class="cls-6" d="m71.23,46.15c2.89-2.53,6.32-3.59,9.21-3.17v-16.79c-2.89-.42-6.32.64-9.21,3.17v16.79Z"/>
        </g>
      </g>
    </g>
    <rect class="cls-5" x="88.54" y="1.28" width="3.93" height="28.83" rx="1.19" ry="1.19" transform="translate(30.51 -53.86) rotate(39.38)"/>
    <path class="cls-7" d="m77.39,31.64l2.14-5.3c.14-.34.57-.45.86-.21l1.83,1.5c.28.23.26.68-.04.88"/>
    <rect class="cls-3" x="99.06" y=".78" width="4.05" height="4.05" rx="1.35" ry="1.35" transform="translate(24.73 -63.51) rotate(39.38)"/>
  </g>
</svg>